<svg width="640" height="180" viewBox="0 0 640 180" fill="none" xmlns="http://www.w3.org/2000/svg">
  <defs>
    <linearGradient id="amber" x1="20" y1="20" x2="160" y2="160" gradientUnits="userSpaceOnUse">
      <stop stop-color="#FFCE6B"/>
      <stop offset="1" stop-color="#F5A623"/>
    </linearGradient>
  </defs>

  <!-- mark -->
  <g transform="translate(90 90)">
    <circle r="60" stroke="url(#amber)" stroke-width="8"/>
    <g stroke="url(#amber)" stroke-width="6.5" stroke-linecap="round" opacity="0.9">
      <path d="M0 -52 A52 52 0 0 1 45 -26"/>
      <path d="M52 0 A52 52 0 0 1 26 45"/>
      <path d="M0 52 A52 52 0 0 1 -45 26"/>
      <path d="M-52 0 A52 52 0 0 1 -26 -45"/>
    </g>
    <path d="M0 -68 A68 68 0 0 1 68 0" stroke="#3DD6B0" stroke-width="8" stroke-linecap="round"/>
    <circle r="22" fill="url(#amber)"/>
    <circle cx="-7" cy="-7" r="6.5" fill="#FFF4DC" opacity="0.85"/>
  </g>

  <!-- wordmark -->
  <text x="176" y="102" font-family="'Archivo Expanded','Arial Black',sans-serif" font-weight="800"
        font-size="52" letter-spacing="1" fill="#EAE6DA">My</text>
  <text x="272" y="102" font-family="'Archivo Expanded','Arial Black',sans-serif" font-weight="800"
        font-size="52" letter-spacing="1" fill="#F5A623">Buddy</text>
  <text x="178" y="132" font-family="'Chivo Mono',monospace" font-size="15" letter-spacing="6"
        fill="#9aa0bd">AI  COMPANION</text>
</svg>
